#!OML:ASF E:\Steps\Project 1\Capture day 1\Session 2\Subject.ASF
:FULLY-SPECIFIED
:DEGREES
188
root 10.3165 20.3636 17.642 36.6585 62.7069 -344.857
lowerback -27.2718 -0.906845 -5.64757
upperback -3.55879 0.789564 -0.519013
thorax 11.1025 0.240935 2.97423
lowerneck -0.855103 2.06751 -22.1009
upperneck -6.55384 4.80108 29.5511
head -2.93708 2.47936 13.7287
rclavicle 2.94947e-014 5.88403e-014
rhumerus -31.3778 2.8806 -74.7918
rradius 38.4671
rwrist -0.18594
rhand -2.38694 -46.6021
rfingers 7.12502
rthumb 23.3022 -75.2119
lclavicle 2.94947e-014 5.88403e-014
lhumerus -49.3973 -28.9478 59.4952
lradius 27.9693
lwrist -1.87896
lhand -21.1748 -21.8764
lfingers 7.12502
lthumb 5.20557 8.0397
rfemur -33.2774 10.6801 8.0363
rtibia 13.4827
rfoot 15.4628 -7.45225
rtoes -28.0229
lfemur -34.1344 -2.59164 -19.7375
ltibia 22.8612
lfoot 25.4704 8.17693
ltoes -52.7302
189
root 10.3557 20.0209 17.6564 38.0527 64.588 -343.419
lowerback -27.4956 -0.938341 -5.76205
upperback -3.43825 0.816917 -0.585815
thorax 11.3557 0.242039 2.97829
lowerneck -0.464476 1.67566 -22.0902
upperneck -7.09376 4.2647 29.4542
head -2.99677 2.18018 13.7192
rclavicle -1.66731e-014 3.10104e-014
rhumerus -31.2421 2.71909 -74.7767
rradius 38.23
rwrist -0.286188
rhand -1.66912 -47.293
rfingers 7.12502
rthumb 23.9907 -75.8139
lclavicle -1.66731e-014 3.10104e-014
lhumerus -50.3061 -28.9275 59.5639
lradius 28.376
lwrist -0.648853
lhand -21.3283 -21.9016
lfingers 7.12502
lthumb 5.05731 8.01804
rfemur -33.1816 10.7683 7.82033
rtibia 13.8947
rfoot 15.4587 -7.30326
rtoes -27.5057
lfemur -33.8287 -3.43411 -20.0538
ltibia 23.3083
lfoot 25.5814 8.37369
ltoes -51.9532
190
root 10.3845 19.6663 17.6661 39.2523 66.7082 -342.212
lowerback -27.4823 -0.96435 -5.66672
upperback -3.39069 0.755735 -0.545611
thorax 11.4103 0.216479 2.9476
lowerneck -0.0807554 1.26456 -22.0972
upperneck -7.6206 3.69319 29.3317
head -3.0424 1.86513 13.7028
rclavicle 5.94366e-014 1.66979e-014
rhumerus -31.1962 2.65046 -74.7664
rradius 37.9931
rwrist -0.356612
rhand -1.17951 -47.875
rfingers 7.12502
rthumb 24.4601 -76.3333
lclavicle 5.94366e-014 1.66979e-014
lhumerus -50.8725 -28.408 59.4374
lradius 28.4437
lwrist 0.407322
lhand -21.5817 -21.7564
lfingers 7.12502
lthumb 4.81266 8.16896
rfemur -33.2355 10.9008 7.95987
rtibia 14.675
rfoot 15.6534 -7.34801
rtoes -26.9213
lfemur -33.7044 -3.68621 -20.2227
ltibia 23.8996
lfoot 26.264 6.83029
ltoes -53.1205
191
root 10.4104 19.2986 17.673 40.9642 68.7225 -340.552
lowerback -27.471 -0.980244 -5.75991
upperback -3.39582 0.767978 -0.524485
thorax 11.396 0.221669 3.03036
lowerneck 0.323558 0.862181 -22.0635
upperneck -8.1261 3.13893 29.2967
head -3.09233 1.55721 13.714
rclavicle 3.76448e-014 -3.02153e-014
rhumerus -31.2999 2.47734 -74.7281
rradius 37.7316
rwrist -0.177687
rhand -2.56815 -47.5692
rfingers 7.12502
rthumb 23.1284 -76.2009
lclavicle 3.76448e-014 -3.02153e-014
lhumerus -51.2873 -27.6465 59.1907
lradius 28.4522
lwrist 0.986994
lhand -22.2637 -19.9836
lfingers 7.12502
lthumb 4.15418 9.95562
rfemur -33.5274 10.9512 7.99183
rtibia 15.8094
rfoot 16.1369 -7.59736
rtoes -30.2072
lfemur -33.6918 -3.56948 -20.6347
ltibia 24.4878
lfoot 27.1937 4.54851
ltoes -54.3663
192
root 10.4356 18.9163 17.6781 42.5624 70.8459 -338.978
lowerback -27.4071 -0.897476 -5.65841
upperback -3.38385 0.847661 -0.518339
thorax 11.3709 0.26642 3.00755
lowerneck 0.97701 0.395458 -21.8252
upperneck -8.88468 2.51358 29.2983
head -3.23559 1.18841 13.7094
rclavicle -1.34428e-014 4.25399e-014
rhumerus -31.3965 2.08203 -74.7448
rradius 37.3612
rwrist -0.21428
rhand -3.71361 -47.348
rfingers 7.12502
rthumb 22.0289 -76.1135
lclavicle -1.34428e-014 4.25399e-014
lhumerus -51.6122 -27.1089 58.8975
lradius 28.6094
lwrist 1.29175
lhand -20.4451 -25.7675
lfingers 7.12502
lthumb 5.91011 4.13006
rfemur -33.7926 11.0634 8.30352
rtibia 17.1539
rfoot 17.2863 -7.6851
rtoes -29.0165
lfemur -33.6857 -3.73473 -20.6938
ltibia 25.2608
lfoot 28.0373 3.61354
ltoes -53.3069
193
root 10.454 18.5216 17.6862 44.7452 73.0137 -336.9
lowerback -27.3289 -0.893137 -5.52553
upperback -3.38423 0.817853 -0.531614
thorax 11.3348 0.263343 2.90469
lowerneck 1.42049 -0.0325615 -21.5133
upperneck -9.58419 1.97113 29.2152
head -3.34842 0.875539 13.6489
rclavicle -8.4732e-015 -1.82882e-014
rhumerus -31.3015 1.55902 -74.8898
rradius 36.8175
rwrist -0.485248
rhand -4.42533 -47.6016
rfingers 7.12502
rthumb 21.3455 -76.446
lclavicle -8.4732e-015 -1.82882e-014
lhumerus -51.8866 -26.557 58.6018
lradius 28.8605
lwrist 1.72526
lhand -20.077 -26.4843
lfingers 7.12502
lthumb 6.26544 3.40304
rfemur -34.275 11.0872 8.63022
rtibia 18.6558
rfoot 18.9599 -7.49805
rtoes -27.1764
lfemur -33.9614 -3.90406 -20.6901
ltibia 26.3927
lfoot 28.9294 3.12905
ltoes -51.6403
194
root 10.4748 18.1253 17.7079 46.7609 74.7993 -334.45
lowerback -26.7777 -0.911267 -5.70213
upperback -3.20831 0.800338 -0.494007
thorax 11.2473 0.241867 3.03571
lowerneck 1.59905 -0.361517 -21.3198
upperneck -10.1946 1.59462 29.0991
head -3.43795 0.669421 13.5915
rclavicle 2.88983e-014 9.54166e-015
rhumerus -31.0976 1.26758 -75.0796
rradius 36.232
rwrist -0.64065
rhand -5.77024 -47.7498
rfingers 7.12502
rthumb 20.0532 -76.7349
lclavicle 2.88983e-014 9.54166e-015
lhumerus -52.1256 -25.5841 58.3486
lradius 29.0843
lwrist 2.11328
lhand -21.4492 -24.2243
lfingers 7.12502
lthumb 4.94063 5.69806
rfemur -34.2566 11.3825 9.07155
rtibia 20.2105
rfoot 19.8266 -7.33151
rtoes -24.7916
lfemur -33.5237 -3.66624 -20.9124
ltibia 27.5498
lfoot 29.3426 3.33607
ltoes -49.6726
195
root 10.4711 17.7058 17.7204 51.568 76.8294 -329.817
lowerback -26.5164 -1.12516 -5.93718
upperback -3.19852 0.580117 -0.516665
thorax 11.1395 0.135798 3.06467
lowerneck 1.66868 -0.766276 -21.1393
upperneck -10.8872 1.16288 29.1039
head -3.51409 0.442244 13.5923
rclavicle 1.77167e-014 -8.74653e-015
rhumerus -30.77 1.1763 -75.3275
rradius 35.5855
rwrist -0.540959
rhand -6.36699 -47.8117
rfingers 7.12502
rthumb 19.4795 -76.856
lclavicle 1.77167e-014 -8.74653e-015
lhumerus -52.3444 -24.5384 57.9688
lradius 29.4978
lwrist 2.21092
lhand -22.3782 -24.0057
lfingers 7.12502
lthumb 4.0436 5.93566
rfemur -35.3255 10.6503 9.39952
rtibia 22.54
rfoot 16.8717 -6.30299
rtoes -29.2887
lfemur -34.4033 -3.73469 -21.4024
ltibia 30.4819
lfoot 27.7952 2.11808
ltoes -51.479
196
root 10.4659 17.2779 17.7237 58.4813 78.8004 -323.093
lowerback -26.2529 -1.24585 -5.9399
upperback -3.17068 0.433214 -0.693969
thorax 11.0489 0.0770169 2.81188
lowerneck 1.88844 -1.17678 -20.9473
upperneck -11.8635 0.790855 29.3077
head -3.71236 0.229254 13.6936
rclavicle -1.5704e-014 1.43125e-014
rhumerus -30.3849 1.03202 -75.6413
rradius 34.9294
rwrist -0.489082
rhand -6.32289 -48.2377
rfingers 7.12502
rthumb 19.5219 -77.2777
lclavicle -1.5704e-014 1.43125e-014
lhumerus -52.6198 -24.057 57.8223
lradius 30.1125
lwrist 2.44623
lhand -21.9378 -25.6594
lfingers 7.12502
lthumb 4.46885 4.27341
rfemur -36.8307 9.28379 10.0392
rtibia 28.5106
rfoot 0.496859 -3.63263
rtoes -24.2292
lfemur -35.4767 -4.15566 -21.7794
ltibia 34.2766
lfoot 21.307 2.19657
ltoes -43.9083
197
root 10.454 16.8423 17.7131 65.964 80.4636 -316.063
lowerback -26.1265 -1.12461 -5.54855
upperback -3.28029 0.504703 -0.892657
thorax 10.8565 0.145862 2.3875
lowerneck 2.58146 -1.44056 -20.8247
upperneck -13.2877 0.64846 29.52
head -4.19317 0.0966309 13.8542
rclavicle 1.07095e-014 -4.05521e-014
rhumerus -30.0107 0.755383 -75.9807
rradius 34.1521
rwrist -0.542748
rhand -6.42791 -49.0616
rfingers 7.12502
rthumb 19.421 -78.1118
lclavicle 1.07095e-014 -4.05521e-014
lhumerus -52.8028 -23.9185 58.1597
lradius 30.4945
lwrist 3.06807
lhand -22.2547 -25.5238
lfingers 7.12502
lthumb 4.16278 4.41532
rfemur -39.3209 7.93823 11.1127
rtibia 36.8284
rfoot -11.4769 -3.44985
rtoes -43.9144
lfemur -37.1819 -3.57284 -22.4745
ltibia 39.1897
lfoot 11.0021 -1.39282
ltoes -49.955
